<?xml version="1.0" standalone="no"?>
<!DOCTYPE svg PUBLIC "-//W3C//DTD SVG 20010904//EN"
 "http://www.w3.org/TR/2001/REC-SVG-20010904/DTD/svg10.dtd">
<svg version="1.0" xmlns="http://www.w3.org/2000/svg"
 width="192.000000pt" height="192.000000pt" viewBox="0 0 192.000000 192.000000"
 preserveAspectRatio="xMidYMid meet">
<metadata>
Created by potrace 1.14, written by Peter Selinger 2001-2017
</metadata>
<g transform="translate(0.000000,192.000000) scale(0.100000,-0.100000)"
fill="#000000" stroke="none">
<path d="M970 1224 c-19 -8 -42 -22 -52 -31 -17 -15 -16 -17 3 -44 l21 -29 25
20 c35 28 98 27 113 -1 19 -34 3 -65 -69 -143 -74 -81 -104 -132 -99 -174 l3
-27 135 0 135 0 3 32 3 32 -98 3 -98 3 71 76 c82 87 104 123 104 174 0 99 -99
153 -200 109z"/>
<path d="M1268 1213 c-16 -4 -18 -21 -18 -174 0 -226 12 -249 122 -249 71 0
94 16 81 56 -6 17 -16 27 -24 25 -85 -25 -99 -11 -99 95 l0 83 58 3 57 3 0 35
0 35 -57 3 -58 3 0 44 c0 47 -8 52 -62 38z"/>
<path d="M294 1116 c-45 -20 -75 -67 -81 -130 -7 -71 10 -120 54 -153 30 -23
46 -28 93 -28 49 0 56 -2 52 -17 -6 -24 -33 -31 -110 -26 l-67 3 0 -35 c0 -28
4 -35 25 -41 48 -13 125 -9 166 10 65 30 74 60 74 249 0 114 -4 163 -12 168
-24 15 -162 15 -194 0z m126 -140 c0 -91 -3 -96 -59 -96 -68 0 -95 106 -41
160 13 13 34 20 60 20 l40 0 0 -84z"/>
<path d="M633 1114 c-74 -37 -104 -154 -63 -239 32 -67 69 -87 149 -82 58 3
66 6 97 39 71 78 67 195 -10 267 -34 32 -125 40 -173 15z m126 -80 c15 -19 21
-41 21 -74 0 -86 -63 -129 -117 -78 -32 30 -33 121 -1 155 29 31 71 30 97 -3z"/>
<path d="M1521 1116 c-48 -27 -65 -92 -35 -135 9 -13 40 -34 68 -46 56 -25 82
-48 71 -65 -8 -13 -91 -13 -117 1 -25 13 -38 -1 -38 -43 0 -23 5 -28 35 -34
20 -3 63 -4 97 -2 51 4 65 9 85 32 49 57 16 139 -68 166 -49 17 -70 35 -63 55
7 17 80 21 104 5 18 -11 30 5 30 41 0 15 -7 29 -16 33 -28 11 -128 6 -153 -8z"/>
</g>
</svg>
